<svg xmlns="http://www.w3.org/2000/svg" xmlns:xlink="http://www.w3.org/1999/xlink" width="40" zoomAndPan="magnify" viewBox="0 0 30 30.000001" height="40" preserveAspectRatio="xMidYMid meet" version="1.0"><defs><clipPath id="fc6f2f2266"><path d="M 0.484375 0.527344 L 29.515625 0.527344 L 29.515625 28.824219 L 0.484375 28.824219 Z M 0.484375 0.527344 " clip-rule="nonzero"/></clipPath></defs><path fill="#1d1549" d="M 27.488281 11 C 28.320312 11.15625 28.632812 12.199219 28.007812 12.769531 L 22.074219 18.234375 L 23.21875 26.195312 C 23.324219 27.027344 22.441406 27.648438 21.660156 27.234375 L 14.636719 23.28125 L 7.402344 26.816406 C 6.625 27.183594 5.738281 26.503906 5.945312 25.671875 L 7.507812 17.765625 L 1.941406 11.988281 C 1.367188 11.363281 1.734375 10.324219 2.566406 10.21875 L 10.578125 9.285156 L 14.375 2.15625 C 14.792969 1.375 15.882812 1.425781 16.25 2.207031 L 19.578125 9.542969 Z M 27.488281 11 " fill-opacity="1" fill-rule="nonzero"/><g clip-path="url(#fc6f2f2266)"><path fill="#1d1549" d="M 22.128906 28.429688 C 21.765625 28.429688 21.398438 28.328125 21.085938 28.171875 L 14.582031 24.476562 L 7.871094 27.753906 C 7.144531 28.117188 6.3125 28.015625 5.6875 27.546875 C 5.0625 27.078125 4.75 26.246094 4.90625 25.464844 L 6.414062 18.128906 L 1.210938 12.71875 C 0.640625 12.144531 0.484375 11.3125 0.742188 10.53125 C 1.003906 9.804688 1.679688 9.230469 2.460938 9.179688 L 9.902344 8.347656 L 13.4375 1.738281 C 13.804688 1.011719 14.53125 0.59375 15.3125 0.59375 C 16.09375 0.59375 16.820312 1.0625 17.183594 1.84375 L 20.308594 8.660156 L 27.644531 9.960938 C 28.421875 10.117188 29.046875 10.6875 29.308594 11.417969 C 29.515625 12.199219 29.308594 13.03125 28.734375 13.550781 L 23.21875 18.597656 L 24.261719 26.039062 C 24.367188 26.816406 24 27.597656 23.375 28.066406 C 22.960938 28.328125 22.542969 28.429688 22.128906 28.429688 Z M 14.6875 22.082031 L 22.179688 26.347656 L 20.929688 17.867188 L 27.277344 12.042969 L 18.796875 10.53125 L 15.261719 2.675781 L 11.253906 10.273438 L 2.667969 11.261719 L 8.652344 17.402344 L 6.933594 25.828125 Z M 14.6875 22.082031 " fill-opacity="1" fill-rule="nonzero"/></g></svg>